#!OML:ASF H:\Punching\Project 1\Capture day 1\Session 1\female.ASF
:FULLY-SPECIFIED
:DEGREES
2406
root 2.67536 15.6715 6.48817 15.6802 -11.2403 -5.14062
lowerback -2.18934 1.10682 0.347283
upperback -6.61099 1.47122 0.0142245
thorax -5.60495 0.709206 -0.21892
lowerneck -10.6771 1.37588 10.3341
upperneck 17.9882 0.568169 -3.18475
head 7.33885 0.674541 -2.69904
rclavicle 4.39811e-015 9.54166e-015
rhumerus -51.8968 31.5006 -108.723
rradius 83.2201
rwrist -11.2304
rhand -8.77051 -1.72257
rfingers 7.12502
rthumb 17.1673 -30.9842
lclavicle 4.39811e-015 9.54166e-015
lhumerus -59.4604 -16.1971 102.347
lradius 103.266
lwrist 1.84654
lhand -14.7137 11.6209
lfingers 7.12502
lthumb 11.4409 41.2887
rfemur -18.6154 -1.43166 23.022
rtibia 30.1867
rfoot -19.4396 -12.4437
rtoes -4.84927
lfemur -19.6322 -5.27206 -16.6474
ltibia 29.5506
lfoot -25.77 19.3728
ltoes 3.92745
2407
root 2.65853 15.6714 6.47733 15.5052 -11.269 -5.02664
lowerback -1.91649 1.05237 0.102173
upperback -6.56093 1.3958 0.00651956
thorax -5.7136 0.683874 -0.0929248
lowerneck -10.7669 1.09438 10.039
upperneck 17.972 0.179159 -2.94335
head 7.32077 0.488798 -2.60728
rclavicle 1.53002e-014 -2.54444e-014
rhumerus -51.3355 32.326 -109.024
rradius 82.7762
rwrist -11.1068
rhand -8.80646 -1.8619
rfingers 7.12502
rthumb 17.1327 -31.1265
lclavicle 1.53002e-014 -2.54444e-014
lhumerus -58.9838 -16.8342 102.48
lradius 103.448
lwrist 1.58178
lhand -15.3599 11.7381
lfingers 7.12502
lthumb 10.8176 41.4395
rfemur -19.3803 -2.03844 22.9297
rtibia 31.7781
rfoot -19.373 -11.7941
rtoes -5.70896
lfemur -19.4473 -5.16184 -16.7266
ltibia 29.433
lfoot -25.5042 19.3917
ltoes 3.89965
2408
root 2.64022 15.6719 6.46711 15.3294 -11.2951 -4.90207
lowerback -1.6648 0.997405 -0.144298
upperback -6.49965 1.31785 -0.00856905
thorax -5.7978 0.657358 0.0273803
lowerneck -10.8574 0.778672 9.70823
upperneck 17.9626 -0.255106 -2.67367
head 7.30431 0.281766 -2.50463
rclavicle -2.03879e-014 2.38542e-015
rhumerus -50.7243 33.2041 -109.389
rradius 82.3359
rwrist -11.2431
rhand -8.83897 -2.09295
rfingers 7.12502
rthumb 17.1014 -31.3603
lclavicle -2.03879e-014 2.38542e-015
lhumerus -58.4771 -17.5972 102.635
lradius 103.63
lwrist 1.21055
lhand -16.0624 11.8428
lfingers 7.12502
lthumb 10.1399 41.5785
rfemur -20.2006 -2.60602 22.8053
rtibia 33.4668
rfoot -19.2406 -11.1248
rtoes -6.63028
lfemur -19.252 -5.05074 -16.8123
ltibia 29.292
lfoot -25.1958 19.4196
ltoes 3.92115
2409
root 2.62053 15.673 6.45877 15.1605 -11.3243 -4.7742
lowerback -1.44421 0.941913 -0.387092
upperback -6.43193 1.23786 -0.0268353
thorax -5.85688 0.62964 0.14358
lowerneck -10.9688 0.438488 9.35782
upperneck 17.9869 -0.723316 -2.39346
head 7.30328 0.0590659 -2.39902
rclavicle 2.3966e-014 7.95139e-015
rhumerus -50.0803 34.1521 -109.835
rradius 81.925
rwrist -11.6907
rhand -8.89151 -2.40576
rfingers 7.12502
rthumb 17.0509 -31.6775
lclavicle 2.3966e-014 7.95139e-015
lhumerus -57.9508 -18.4546 102.813
lradius 103.837
lwrist 0.739308
lhand -16.7948 11.9261
lfingers 7.12502
lthumb 9.4333 41.695
rfemur -21.0674 -3.12535 22.6506
rtibia 35.2257
rfoot -19.0564 -10.4028
rtoes -7.53974
lfemur -19.0444 -4.93867 -16.8982
ltibia 29.1263
lfoot -24.8606 19.4584
ltoes 3.98316
2410
root 2.59941 15.6747 6.45096 14.9976 -11.3505 -4.6472
lowerback -1.25098 0.89557 -0.613496
upperback -6.3546 1.16923 -0.0531701
thorax -5.88928 0.606489 0.242828
lowerneck -11.0699 0.0614858 8.9695
upperneck 18.009 -1.23802 -2.08783
head 7.3005 -0.186013 -2.28318
rclavicle -1.02623e-014 1.74931e-014
rhumerus -49.3802 35.1463 -110.338
rradius 81.556
rwrist -12.4419
rhand -8.96409 -2.77508
rfingers 7.12502
rthumb 16.981 -32.0528
lclavicle -1.02623e-014 1.74931e-014
lhumerus -57.39 -19.4517 103.028
lradius 104.06
lwrist 0.214577
lhand -17.5465 11.9778
lfingers 7.12502
lthumb 8.70803 41.7782
rfemur -21.9737 -3.56864 22.4708
rtibia 37.0241
rfoot -18.8092 -9.64127
rtoes -8.44074
lfemur -18.8303 -4.83503 -16.977
ltibia 28.9377
lfoot -24.4976 19.5122
ltoes 4.08152
2411
root 2.57664 15.677 6.44393 14.8426 -11.3798 -4.51755
lowerback -1.08322 0.858183 -0.83427
upperback -6.27366 1.11185 -0.0852982
thorax -5.90289 0.588394 0.333231
lowerneck -11.1636 -0.348794 8.54942
upperneck 18.0407 -1.79439 -1.76546
head 7.30143 -0.451218 -2.16071
rclavicle -2.86001e-014 -5.56597e-015
rhumerus -48.6265 36.1938 -110.897
rradius 81.2274
rwrist -13.4482
rhand -9.03316 -3.17471
rfingers 7.12502
rthumb 16.9145 -32.4581
lclavicle -2.86001e-014 -5.56597e-015
lhumerus -56.7924 -20.579 103.281
lradius 104.306
lwrist -0.329476
lhand -18.2928 11.9871
lfingers 7.12502
lthumb 7.98774 41.8162
rfemur -22.9098 -3.91515 22.2591
rtibia 38.8274
rfoot -18.5216 -8.82664
rtoes -9.24282
lfemur -18.6096 -4.73767 -17.0529
ltibia 28.728
lfoot -24.126 19.5809
ltoes 4.18313
2412
root 2.55239 15.6797 6.43791 14.6893 -11.4076 -4.38702
lowerback -0.937682 0.832905 -1.03921
upperback -6.18964 1.07045 -0.123028
thorax -5.90011 0.577129 0.408889
lowerneck -11.2314 -0.790902 8.08978
upperneck 18.0731 -2.3871 -1.42637
head 7.30112 -0.734779 -2.02958
rclavicle 4.87022e-015 1.66979e-014
rhumerus -47.8077 37.2792 -111.481
rradius 80.9321
rwrist -14.621
rhand -9.0511 -3.56672
rfingers 7.12502
rthumb 16.8973 -32.8516
lclavicle 4.87022e-015 1.66979e-014
lhumerus -56.1512 -21.8445 103.582
lradius 104.569
lwrist -0.867704
lhand -19.0174 11.9387
lfingers 7.12502
lthumb 7.2884 41.7932
rfemur -23.8565 -4.16189 22.0162
rtibia 40.5985
rfoot -18.2029 -7.96115
rtoes -9.97689
lfemur -18.3759 -4.65806 -17.1241
ltibia 28.5004
lfoot -23.7645 19.6678
ltoes 4.2664
2413
root 2.5265 15.6826 6.43267 14.5346 -11.4275 -4.25383
lowerback -0.803082 0.817146 -1.23484
upperback -6.10596 1.04159 -0.163297
thorax -5.89132 0.571426 0.476456
lowerneck -11.2738 -1.25753 7.60107
upperneck 18.1107 -3.00579 -1.08529
head 7.30221 -1.03231 -1.89542
rclavicle 2.78299e-014 1.03368e-014
rhumerus -46.9117 38.4021 -112.068
rradius 80.6509
rwrist -15.8507
rhand -8.97768 -3.91866
rfingers 7.12502
rthumb 16.9679 -33.1975
lclavicle 2.78299e-014 1.03368e-014
lhumerus -55.4495 -23.2582 103.928
lradius 104.832
lwrist -1.38598
lhand -19.6992 11.8431
lfingers 7.12502
lthumb 6.63019 41.7193
rfemur -24.7997 -4.31764 21.7428
rtibia 42.2966
rfoot -17.8979 -7.07226
rtoes -10.6206
lfemur -18.1274 -4.5959 -17.1898
ltibia 28.2534
lfoot -23.42 19.7634
ltoes 4.29431
2414
root 2.49895 15.6857 6.42851 14.3799 -11.4334 -4.11599
lowerback -0.686407 0.809238 -1.41852
upperback -6.01889 1.02338 -0.205891
thorax -5.86857 0.57016 0.534839
lowerneck -11.2959 -1.74129 7.08422
upperneck 18.1503 -3.64017 -0.747804
head 7.30544 -1.33945 -1.75928
rclavicle 1.70458e-014 -1.11319e-014
rhumerus -45.9127 39.5651 -112.623
rradius 80.3632
rwrist -17.0131
rhand -8.79978 -4.19347
rfingers 7.12502
rthumb 17.1392 -33.4575
lclavicle 1.70458e-014 -1.11319e-014
lhumerus -54.6613 -24.8096 104.304
lradius 105.093
lwrist -1.87733
lhand -20.3215 11.7041
lfingers 7.12502
lthumb 6.02946 41.5983
rfemur -25.7299 -4.40611 21.4399
rtibia 43.8781
rfoot -17.6242 -6.21901
rtoes -11.1887
lfemur -17.8651 -4.54732 -17.2509
ltibia 27.9857
lfoot -23.0979 19.8556
ltoes 4.24856
2415
root 2.46973 15.6889 6.42619 14.2172 -11.4214 -3.97309
lowerback -0.57842 0.806736 -1.59505
upperback -5.93149 1.01266 -0.24521
thorax -5.84058 0.572193 0.592469
lowerneck -11.299 -2.23309 6.54686
upperneck 18.2027 -4.27698 -0.429582
head 7.31499 -1.65053 -1.62653
rclavicle -1.50082e-014 1.03368e-014
rhumerus -44.8195 40.7613 -113.127
rradius 80.056
rwrist -17.9918
rhand -8.53403 -4.33238
rfingers 7.12502
rthumb 17.3949 -33.574
lclavicle -1.50082e-014 1.03368e-014
lhumerus -53.7885 -26.4609 104.705
lradius 105.352
lwrist -2.35776
lhand -20.8596 11.5172
lfingers 7.12502
lthumb 5.50993 41.4256
rfemur -26.6232 -4.4575 21.1081
rtibia 45.2965
rfoot -17.3949 -5.46393
rtoes -11.6673
lfemur -17.574 -4.50913 -17.3086
ltibia 27.6915
lfoot -22.798 19.9373
ltoes 4.11136
2416
root 2.43912 15.6921 6.42569 14.0417 -11.3919 -3.82524
lowerback -0.470818 0.811162 -1.76061
upperback -5.8432 1.01149 -0.281109
thorax -5.81157 0.578384 0.647107
lowerneck -11.2717 -2.73041 5.99157
upperneck 18.2522 -4.91182 -0.13307
head 7.32374 -1.96405 -1.49752
rclavicle -3.82164e-014 7.15625e-015
rhumerus -43.6135 41.9759 -113.544
rradius 79.725
rwrist -18.6785
rhand -8.18323 -4.36265
rfingers 7.12502
rthumb 17.7325 -33.5741
lclavicle -3.82164e-014 7.15625e-015
lhumerus -52.8169 -28.2014 105.116
lradius 105.599
lwrist -2.81824
lhand -21.3315 11.2824
lfingers 7.12502
lthumb 5.0543 41.2021
rfemur -27.4661 -4.49374 20.7478
rtibia 46.5077
rfoot -17.2087 -4.87818
rtoes -12.012
lfemur -17.2475 -4.4867 -17.3641
ltibia 27.3672
lfoot -22.5192 20.0107
ltoes 3.90754
